# This file uses centimeters as units for non-parametric coordinates.

mtllib Cutting.mtl
g default
v -24.203019 -0.463023 15.576252
v -24.095836 -0.570212 15.576252
v -24.095836 -0.463023 15.683442
v 24.095836 -0.570212 15.576252
v 24.203019 -0.463023 15.576252
v 24.095836 -0.463023 15.683442
v -24.095836 1.498016 15.576252
v -24.203019 1.390827 15.576252
v -24.095836 1.390827 15.683442
v 24.203019 1.390827 15.576252
v 24.095836 1.498016 15.576252
v 24.095836 1.390827 15.683442
v -24.095836 1.390827 -15.683442
v -24.203019 1.390827 -15.576252
v -24.095836 1.498016 -15.576252
v 24.203019 1.390827 -15.576252
v 24.095836 1.390827 -15.683442
v 24.095836 1.498016 -15.576252
v -24.095836 -0.570212 -15.576252
v -24.203019 -0.463023 -15.576252
v -24.095836 -0.463023 -15.683442
v 24.203019 -0.463023 -15.576252
v 24.095836 -0.570212 -15.576252
v 24.095836 -0.463023 -15.683442
vt 0.012800 0.804128
vt 0.942325 0.843208
vt 0.982540 0.223786
vt 0.053023 0.184705
vt 0.979745 0.220667
vt 0.948139 0.224904
vt 0.052891 0.220596
vt 0.015623 0.220665
vt 0.050019 0.223412
vt 0.050029 0.804507
vt 0.015803 0.804044
vt 0.015801 0.223866
vt 0.979537 0.804042
vt 0.945320 0.804505
vt 0.945324 0.223409
vt 0.979537 0.223870
vt 0.942471 0.223329
vt 0.942471 0.804583
vt 0.052875 0.804583
vt 0.052875 0.223330
vt 0.948141 0.803004
vt 0.979748 0.807245
vt 0.052981 0.840511
vt 0.047205 0.802998
vt 0.074469 0.791932
vt 0.930481 0.791932
vt 0.930481 0.238581
vt 0.074469 0.238581
vt 0.942366 0.840511
vt 0.982538 0.804125
vt 0.053022 0.843208
vt 0.015616 0.807248
vt 0.942456 0.807317
vt 0.052891 0.807317
vt 0.942455 0.220595
vt 0.047211 0.224906
vt 0.942325 0.184704
vt 0.942366 0.187401
vt 0.052981 0.187402
vt 0.012797 0.223783
vn 0.000000 -1.000000 0.000000
vn 0.000000 -1.000000 0.000000
vn 0.000000 -1.000000 0.000000
vn 0.000000 -1.000000 0.000000
vn 0.000000 0.000000 1.000000
vn 0.000000 0.000000 1.000000
vn 0.000000 0.000000 1.000000
vn 0.000000 0.000000 1.000000
vn -1.000000 0.000000 0.000000
vn -1.000000 0.000000 0.000000
vn -1.000000 0.000000 0.000000
vn -1.000000 0.000000 0.000000
vn 1.000000 0.000000 0.000000
vn 1.000000 0.000000 0.000000
vn 1.000000 0.000000 0.000000
vn 1.000000 0.000000 0.000000
vn 0.000000 1.000000 0.000000
vn 0.000000 1.000000 0.000000
vn 0.000000 1.000000 0.000000
vn 0.000000 1.000000 0.000000
vn 0.000000 0.000000 -1.000000
vn 0.000000 0.000000 -1.000000
vn 0.000000 0.000000 -1.000000
vn 0.000000 0.000000 -1.000000
vn -0.707127 -0.707086 0.000000
vn -0.707127 -0.707086 0.000000
vn -0.707127 -0.707086 0.000000
vn -0.707127 -0.707086 0.000000
vn 0.000000 -0.707108 0.707106
vn 0.000000 -0.707108 0.707106
vn 0.000000 -0.707108 0.707106
vn 0.000000 -0.707108 0.707106
vn -0.707126 0.000000 0.707088
vn -0.707126 0.000000 0.707088
vn -0.707126 0.000000 0.707088
vn -0.707126 0.000000 0.707088
vn 0.707127 -0.707086 0.000000
vn 0.707127 -0.707086 0.000000
vn 0.707127 -0.707086 0.000000
vn 0.707127 -0.707086 0.000000
vn 0.707126 0.000000 0.707088
vn 0.707126 0.000000 0.707088
vn 0.707126 0.000000 0.707088
vn 0.707126 0.000000 0.707088
vn -0.707127 0.707086 0.000000
vn -0.707127 0.707086 0.000000
vn -0.707127 0.707086 0.000000
vn -0.707127 0.707086 0.000000
vn 0.000000 0.707108 0.707106
vn 0.000000 0.707108 0.707106
vn 0.000000 0.707108 0.707106
vn 0.000000 0.707108 0.707106
vn 0.707127 0.707086 0.000000
vn 0.707127 0.707086 0.000000
vn 0.707127 0.707086 0.000000
vn 0.707127 0.707086 0.000000
vn -0.707126 0.000000 -0.707088
vn -0.707126 0.000000 -0.707088
vn -0.707126 0.000000 -0.707088
vn -0.707126 0.000000 -0.707088
vn 0.000000 0.707108 -0.707106
vn 0.000000 0.707108 -0.707106
vn 0.000000 0.707108 -0.707106
vn 0.000000 0.707108 -0.707106
vn 0.707126 0.000000 -0.707088
vn 0.707126 0.000000 -0.707088
vn 0.707126 0.000000 -0.707088
vn 0.707126 0.000000 -0.707088
vn 0.000000 -0.707108 -0.707106
vn 0.000000 -0.707108 -0.707106
vn 0.000000 -0.707108 -0.707106
vn 0.000000 -0.707108 -0.707106
vn -0.577374 -0.577341 0.577336
vn -0.577374 -0.577341 0.577336
vn -0.577374 -0.577341 0.577336
vn 0.577374 -0.577341 0.577336
vn 0.577374 -0.577341 0.577336
vn 0.577374 -0.577341 0.577336
vn -0.577374 0.577341 0.577335
vn -0.577374 0.577341 0.577335
vn -0.577374 0.577341 0.577335
vn 0.577374 0.577341 0.577335
vn 0.577374 0.577341 0.577335
vn 0.577374 0.577341 0.577335
vn -0.577374 0.577341 -0.577335
vn -0.577374 0.577341 -0.577335
vn -0.577374 0.577341 -0.577335
vn 0.577374 0.577341 -0.577335
vn 0.577374 0.577341 -0.577335
vn 0.577374 0.577341 -0.577335
vn -0.577374 -0.577341 -0.577336
vn -0.577374 -0.577341 -0.577336
vn -0.577374 -0.577341 -0.577336
vn 0.577374 -0.577341 -0.577336
vn 0.577374 -0.577341 -0.577336
vn 0.577374 -0.577341 -0.577336
s off
g pCube1
usemtl initialShadingGroup
f 19/25/1 23/26/2 4/27/3 2/28/4
f 6/38/5 12/35/6 9/7/7 3/39/8
f 8/9/9 14/10/10 20/11/11 1/12/12
f 22/13/13 16/14/14 10/15/15 5/16/16
f 11/17/17 18/18/18 15/19/19 7/20/20
f 17/33/21 24/29/22 21/23/23 13/34/24
f 2/40/25 1/12/26 20/11/27 19/1/28
f 3/39/29 2/4/30 4/37/31 6/38/32
f 1/12/33 3/8/34 9/36/35 8/9/36
f 5/16/37 4/3/38 23/30/39 22/13/40
f 6/5/41 5/16/42 10/15/43 12/6/44
f 8/9/45 7/20/46 15/19/47 14/10/48
f 7/20/49 9/7/50 12/35/51 11/17/52
f 11/17/53 10/15/54 16/14/55 18/18/56
f 14/10/57 13/24/58 21/32/59 20/11/60
f 13/34/61 15/19/62 18/18/63 17/33/64
f 17/21/65 16/14/66 22/13/67 24/22/68
f 19/31/69 21/23/70 24/29/71 23/2/72
f 1/12/73 2/40/74 3/8/75
f 4/3/76 5/16/77 6/5/78
f 7/20/79 8/9/80 9/36/81
f 10/15/82 11/17/83 12/6/84
f 13/24/85 14/10/86 15/19/87
f 16/14/88 17/21/89 18/18/90
f 19/1/91 20/11/92 21/32/93
f 22/13/94 23/30/95 24/22/96
